<?xml version="1.0" encoding="UTF-8"?>
<svg version="1.1" xmlns="http://www.w3.org/2000/svg" width="800" height="800">
<path d="M0 0 C264 0 528 0 800 0 C800 264 800 528 800 800 C536 800 272 800 0 800 C0 536 0 272 0 0 Z " fill="#232323" transform="translate(0,0)"/>
<path d="M0 0 C0.56070276 7.18583182 0.98453055 14.36686267 1.24349213 21.570261 C1.36807958 24.92132141 1.54863177 28.24604914 1.81054688 31.59082031 C3.15830558 49.25702997 3.15830558 49.25702997 0 57 C-5.6108711 63.36321867 -13.41476644 66.5926308 -21.11657715 69.78027344 C-24.67838645 71.28696657 -27.82299633 73.10071142 -31.1171875 75.12109375 C-33.03610652 76.22717308 -34.95536872 77.33265727 -36.875 78.4375 C-39.05990538 79.69659802 -41.24480092 80.95571311 -43.4296875 82.21484375 C-44.51475586 82.83987793 -45.59982422 83.46491211 -46.71777344 84.10888672 C-52.14659942 87.23680148 -57.57319281 90.36858448 -63 93.5 C-65.16665583 94.75001879 -67.3333225 96.00001878 -69.5 97.25 C-70.5725 97.86875 -71.645 98.4875 -72.75 99.125 C-110.66666667 121 -148.58333333 142.875 -186.5 164.75 C-187.5737085 165.3694751 -188.64741699 165.9889502 -189.75366211 166.62719727 C-191.9080241 167.87004233 -194.06248285 169.11271967 -196.21704102 170.35522461 C-201.23270964 173.24795937 -206.24748231 176.14220746 -211.25863647 179.04275513 C-213.01658069 180.06017706 -214.77484442 181.07704461 -216.53320312 182.09375 C-218.72654401 183.3621881 -220.91929847 184.63164102 -223.11132812 185.90234375 C-224.11486328 186.48242188 -225.11839844 187.0625 -226.15234375 187.66015625 C-227.01851318 188.16168213 -227.88468262 188.66320801 -228.77709961 189.17993164 C-233.48810921 191.84037983 -238.2503013 194.40925525 -243 197 C-122.715 197.495 -122.715 197.495 0 198 C0 214.17 0 230.34 0 247 C-80.19 247.33 -160.38 247.66 -243 248 C-234.09 252.95 -225.18 257.9 -216 263 C-207.4375 268 -207.4375 268 -203.4609375 270.36328125 C-197.85754155 273.68875802 -192.20842533 276.93494253 -186.5625 280.1875 C-185.45511475 280.82558594 -184.34772949 281.46367187 -183.20678711 282.12109375 C-180.93630921 283.42906691 -178.665719 284.73684513 -176.39501953 286.04443359 C-170.9283002 289.19332054 -165.46425113 292.34683264 -160 295.5 C-157.83334689 296.7500235 -155.66668021 298.00002347 -153.5 299.25 C-123.16666667 316.75 -92.83333333 334.25 -62.5 351.75 C-61.4267749 352.36915283 -60.3535498 352.98830566 -59.24780273 353.6262207 C-57.08840605 354.8720577 -54.92906331 356.11798818 -52.76977539 357.36401367 C-47.24232403 360.55348953 -41.71384879 363.74116885 -36.18359375 366.92578125 C-35.05373047 367.57675781 -33.92386719 368.22773437 -32.75976562 368.8984375 C-30.64554146 370.11650904 -28.53099381 371.3340194 -26.41601562 372.55078125 C-24.39945841 373.71290984 -22.39993931 374.90503421 -20.41723633 376.12402344 C-17.71299486 377.6085838 -15.35301359 378.62861356 -12.47924805 379.64941406 C-7.52761065 381.6094372 -3.17413264 383.57636308 0 388 C2.65500351 396.68240325 1.68180956 406.16502067 1.16729736 415.10968018 C0.99203097 418.4801642 0.91547726 421.85281736 0.83007812 425.2265625 C0.64332567 431.82335695 0.35953018 438.41048371 0 445 C-3.62138201 443.58207839 -6.96563988 441.99845838 -10.359375 440.09375 C-11.89549438 439.23342163 -11.89549438 439.23342163 -13.46264648 438.35571289 C-14.54747314 437.74332764 -15.6322998 437.13094238 -16.75 436.5 C-17.87672119 435.86634521 -19.00344238 435.23269043 -20.16430664 434.57983398 C-26.95517743 430.74999436 -33.70984746 426.86664399 -40.4152832 422.8894043 C-46.72724525 419.14695337 -53.07941601 415.47596521 -59.4375 411.8125 C-61.09833618 410.85549194 -61.09833618 410.85549194 -62.79272461 409.87915039 C-65.06337068 408.57110523 -67.33412358 407.26324552 -69.60498047 405.95556641 C-75.0716998 402.80667946 -80.53574887 399.65316736 -86 396.5 C-88.16665311 395.2499765 -90.33331979 393.99997653 -92.5 392.75 C-105.5 385.25 -118.5 377.75 -131.5 370.25 C-132.57266113 369.63116943 -133.64532227 369.01233887 -134.75048828 368.37475586 C-136.91557071 367.12564482 -139.08060982 365.87645871 -141.24560547 364.62719727 C-146.68615706 361.48797691 -152.12747216 358.35009437 -157.5703125 355.21484375 C-168.02206199 349.19252671 -178.46299548 343.15330663 -188.875 337.0625 C-198.14563931 331.64041301 -207.45936699 326.29675988 -216.79046631 320.97976685 C-224.88707874 316.36515954 -232.95787441 311.70912852 -241 307 C-253.34114469 299.77392815 -265.75822788 292.68351036 -278.18408203 285.60449219 C-281.45770391 283.73920322 -284.72926612 281.8703471 -288 280 C-288.08378906 280.80695313 -288.16757812 281.61390625 -288.25390625 282.4453125 C-289.19952223 286.95060332 -290.94657847 290.74297785 -292.9375 294.875 C-293.33791504 295.70854004 -293.73833008 296.54208008 -294.15087891 297.40087891 C-300.78078498 310.92033452 -308.74956424 322.97140616 -319 334 C-319.58523438 334.63437988 -320.17046875 335.26875977 -320.7734375 335.92236328 C-344.64677702 361.52305283 -378.11776511 380.65853149 -413.82958984 382.16113281 C-415.20663331 382.18101716 -416.58377601 382.19473991 -417.9609375 382.203125 C-418.70977203 382.20882507 -419.45860657 382.21452515 -420.23013306 382.22039795 C-421.81177381 382.22979745 -423.39343371 382.2363617 -424.97509766 382.24023438 C-427.33403264 382.2498333 -429.69205403 382.28085914 -432.05078125 382.3125 C-468.25543727 382.56461562 -500.07253729 367.45410648 -527 344 C-528.43664208 342.81146223 -529.87394798 341.62372535 -531.3125 340.4375 C-532.199375 339.633125 -533.08625 338.82875 -534 338 C-534 337.34 -534 336.68 -534 336 C-534.66 336 -535.32 336 -536 336 C-536 375.93 -536 415.86 -536 457 C-516.2 457 -496.4 457 -476 457 C-476 474.82 -476 492.64 -476 511 C-534.08 511 -592.16 511 -652 511 C-652 493.18 -652 475.36 -652 457 C-633.85 457 -615.7 457 -597 457 C-597 387.7 -597 318.4 -597 247 C-546 246 -546 246 -535 247 C-534.57589844 248.28132812 -534.15179687 249.56265625 -533.71484375 250.8828125 C-524.90580467 277.0661512 -512.64497124 296.94323315 -489 312 C-488.13503906 312.57234375 -487.27007812 313.1446875 -486.37890625 313.734375 C-463.47213293 328.09479322 -433.73128474 333.08361902 -407.3359375 327.1640625 C-386.24376901 321.82464642 -369.34563947 312.17394001 -354 297 C-353.33613281 296.40832031 -352.67226563 295.81664062 -351.98828125 295.20703125 C-341.27777378 285.4951725 -331.91548537 269.21749038 -329 255 C-329.71542969 254.72414063 -330.43085938 254.44828125 -331.16796875 254.1640625 C-333.95738855 253.01751478 -336.62290358 251.73772885 -339.3125 250.375 C-340.19550781 249.92898438 -341.07851563 249.48296875 -341.98828125 249.0234375 C-342.98408203 248.51683594 -342.98408203 248.51683594 -344 248 C-344.350625 249.19625 -344.70125 250.3925 -345.0625 251.625 C-348.80906275 262.74213714 -354.29169135 272.19711152 -362 281 C-362.54140625 281.68449219 -363.0828125 282.36898438 -363.640625 283.07421875 C-376.39802231 298.83517805 -397.25211086 308.76214813 -417 312 C-434.89995251 313.75880463 -452.74487654 311.98020008 -469 304 C-470.40185547 303.319375 -470.40185547 303.319375 -471.83203125 302.625 C-491.52603399 292.488786 -507.44841753 274.89271149 -515 254 C-516.50012838 249.03279171 -517.7750486 244.04092905 -519 239 C-519.22816406 238.20980469 -519.45632813 237.41960937 -519.69140625 236.60546875 C-522.52596548 226.23851437 -521.76082396 214.28168923 -519 204 C-518.75507812 202.9584375 -518.51015625 201.916875 -518.2578125 200.84375 C-512.41512891 177.88665696 -498.57108751 158.48401787 -478.625 145.6875 C-463.55085314 136.90923787 -448.87481949 132.40209891 -431.375 132.5 C-429.54630371 132.50966797 -429.54630371 132.50966797 -427.68066406 132.51953125 C-405.06281068 132.97272314 -386.0525167 141.43531505 -369 156 C-368.33742188 156.56074219 -367.67484375 157.12148438 -366.9921875 157.69921875 C-355.40922544 168.39325581 -348.74687106 182.63282235 -343 197 C-338.38 194.36 -333.76 191.72 -329 189 C-333.42855026 175.52982629 -339.60440925 163.66865744 -349 153 C-349.67546875 152.18144531 -350.3509375 151.36289062 -351.046875 150.51953125 C-367.68343967 130.9381732 -393.46948046 118.15144828 -419 116 C-450.00316486 114.37692081 -474.80183689 118.65331302 -499 139 C-499.73992187 139.58136719 -500.47984375 140.16273438 -501.2421875 140.76171875 C-518.3502943 154.79523696 -529.04986139 177.17451486 -535 198 C-555.46 198 -575.92 198 -597 198 C-597 172.26 -597 146.52 -597 120 C-613.83 120 -630.66 120 -648 120 C-648 101.85 -648 83.7 -648 65 C-611.04 65 -574.08 65 -536 65 C-536 80.84 -536 96.68 -536 113 C-535.34 113 -534.68 113 -534 113 C-533.60300903 112.1184021 -533.60300903 112.1184021 -533.19799805 111.21899414 C-520.78114156 88.2198483 -488.24403538 72.71680251 -464.52441406 65.21728516 C-439.06545307 57.62058101 -410.37843966 58.80510732 -385 66 C-384.15405273 66.23501221 -383.30810547 66.47002441 -382.43652344 66.7121582 C-362.76312386 72.36891988 -345.40933199 82.67012804 -330 96 C-328.91806189 96.85593326 -327.83497783 97.71042317 -326.75 98.5625 C-323.13425399 101.76736578 -320.10815857 105.30944485 -317 109 C-316.21238281 109.89976562 -315.42476563 110.79953125 -314.61328125 111.7265625 C-308.58105354 118.72875026 -303.57808323 125.9399943 -299 134 C-298.65694824 134.60247559 -298.31389648 135.20495117 -297.96044922 135.82568359 C-286 157.00346101 -286 157.00346101 -286 164 C-268.19919309 154.10891974 -268.19919309 154.10891974 -250.5859375 143.88989258 C-244.27328523 140.14775591 -237.92096234 136.47618322 -231.5625 132.8125 C-230.45527588 132.17449463 -229.34805176 131.53648926 -228.20727539 130.87915039 C-225.93662932 129.57110523 -223.66587642 128.26324552 -221.39501953 126.95556641 C-215.9283002 123.80667946 -210.46425113 120.65316736 -205 117.5 C-202.83334689 116.2499765 -200.66668021 114.99997653 -198.5 113.75 C-197.4275 113.13125 -196.355 112.5125 -195.25 111.875 C-159.5 91.25 -159.5 91.25 -156.24951172 89.37475586 C-154.08442929 88.12564482 -151.91939018 86.87645871 -149.75439453 85.62719727 C-144.31384294 82.48797691 -138.87252784 79.35009437 -133.4296875 76.21484375 C-122.97793801 70.19252671 -112.53700452 64.15330663 -102.125 58.0625 C-92.85500223 52.64078822 -83.54168248 47.29795085 -74.21154785 41.98077393 C-65.09885859 36.78621072 -56.0211522 31.53454254 -46.96826172 26.23632812 C-38.30242125 21.16689111 -29.60706716 16.14963486 -20.90185547 11.14819336 C-15.20087072 7.86771069 -9.54549644 4.53502149 -3.95654297 1.06640625 C-2 0 -2 0 0 0 Z " fill="#AFD18F" transform="translate(743,196)"/>
<path d="M0 0 C0.63615234 1.92199219 0.63615234 1.92199219 1.28515625 3.8828125 C10.09419533 30.0661512 22.35502876 49.94323315 46 65 C47.29744141 65.85851562 47.29744141 65.85851562 48.62109375 66.734375 C71.52786707 81.09479322 101.26871526 86.08361902 127.6640625 80.1640625 C148.75623099 74.82464642 165.65436053 65.17394001 181 50 C181.99580078 49.11248047 181.99580078 49.11248047 183.01171875 48.20703125 C194.18661816 38.0740805 201.29925974 23.10222077 206 9 C216.43700601 12.39809498 216.43700601 12.39809498 218.2434082 14.3293457 C220.67940289 16.64616456 223.50489495 18.16073633 226.41796875 19.79296875 C227.03521317 20.14386063 227.65245758 20.4947525 228.28840637 20.85627747 C230.25220894 21.971278 232.21976283 23.07946083 234.1875 24.1875 C235.52303995 24.94421425 236.85832938 25.70137081 238.19335938 26.45898438 C241.45935943 28.31112666 244.7287396 30.15716571 248 32 C245.24154522 40.10210002 242.38771499 47.9532749 238.3125 55.5 C237.88316162 56.30187744 237.45382324 57.10375488 237.01147461 57.92993164 C230.57735461 69.69239888 222.72406685 79.91843322 213.41210938 89.53222656 C211.99908123 91.00095498 210.61633448 92.49425258 209.234375 93.9921875 C187.25228025 117.38684733 153.43562475 133.80355015 121.17041016 135.16113281 C119.79336669 135.18101716 118.41622399 135.19473991 117.0390625 135.203125 C116.29022797 135.20882507 115.54139343 135.21452515 114.76986694 135.22039795 C113.18822619 135.22979745 111.60656629 135.2363617 110.02490234 135.24023438 C107.66596736 135.2498333 105.30794597 135.28085914 102.94921875 135.3125 C66.74456273 135.56461562 34.92746271 120.45410648 8 97 C6.56335792 95.81146223 5.12605202 94.62372535 3.6875 93.4375 C2.800625 92.633125 1.91375 91.82875 1 91 C1 90.34 1 89.68 1 89 C0.34 89 -0.32 89 -1 89 C-1 128.93 -1 168.86 -1 210 C18.8 210 38.6 210 59 210 C59 227.82 59 245.64 59 264 C0.92 264 -57.16 264 -117 264 C-117 246.18 -117 228.36 -117 210 C-98.85 210 -80.7 210 -62 210 C-62 140.7 -62 71.4 -62 0 C-12 -1 -12 -1 0 0 Z " fill="#FE8A24" transform="translate(208,443)"/>
<path d="M0 0 C1.2689209 0.35251831 1.2689209 0.35251831 2.56347656 0.7121582 C22.23687614 6.36891988 39.59066801 16.67012804 55 30 C56.08193811 30.85593326 57.16502217 31.71042317 58.25 32.5625 C61.86574601 35.76736578 64.89184143 39.30944485 68 43 C68.78761719 43.89976562 69.57523437 44.79953125 70.38671875 45.7265625 C76.41894646 52.72875026 81.42191677 59.9399943 86 68 C86.34305176 68.60247559 86.68610352 69.20495117 87.03955078 69.82568359 C99.36872977 91.65635262 99.36872977 91.65635262 98.83129883 97.98730469 C97.65805278 100.82790394 96.09382062 101.46074479 93.4140625 102.91015625 C92.48335938 103.42513672 91.55265625 103.94011719 90.59375 104.47070312 C89.6140625 104.99599609 88.634375 105.52128906 87.625 106.0625 C85.69814663 107.11153622 83.77356491 108.16475851 81.8515625 109.22265625 C80.99385254 109.68422119 80.13614258 110.14578613 79.25244141 110.62133789 C77.14544832 111.91097478 75.69560249 113.22940924 74 115 C71.7734375 116.09765625 71.7734375 116.09765625 69.375 117.0625 C65.98732008 118.24652127 65.98732008 118.24652127 64 121 C63.34 121 62.68 121 62 121 C61.67 121.66 61.34 122.32 61 123 C58.64453125 122.82421875 58.64453125 122.82421875 56 122 C54.69921875 119.76953125 54.69921875 119.76953125 53.6875 116.8125 C49.52438027 105.85005306 43.62215152 95.9278734 36 87 C35.01966797 85.80310547 35.01966797 85.80310547 34.01953125 84.58203125 C17.33663857 64.98191144 -8.41182236 52.1563071 -34 50 C-65.00316486 48.37692081 -89.80183689 52.65331302 -114 73 C-114.73992187 73.58136719 -115.47984375 74.16273438 -116.2421875 74.76171875 C-133.3502943 88.79523696 -144.04986139 111.17451486 -150 132 C-170.46 132 -190.92 132 -212 132 C-212 106.26 -212 80.52 -212 54 C-228.83 54 -245.66 54 -263 54 C-263 35.85 -263 17.7 -263 -1 C-226.04 -1 -189.08 -1 -151 -1 C-151 14.84 -151 30.68 -151 47 C-150.34 47 -149.68 47 -149 47 C-148.73533936 46.41226807 -148.47067871 45.82453613 -148.19799805 45.21899414 C-135.78114156 22.2198483 -103.24403538 6.71680251 -79.52441406 -0.78271484 C-54.06545307 -8.37941899 -25.37843966 -7.19489268 0 0 Z " fill="#FD8A24" transform="translate(358,262)"/>
<path d="M0 0 C1.82869629 0.00966797 1.82869629 0.00966797 3.69433594 0.01953125 C26.31218932 0.47272314 45.3224833 8.93531505 62.375 23.5 C63.03757812 24.06074219 63.70015625 24.62148438 64.3828125 25.19921875 C75.19346924 35.18022044 82.38991909 48.73149094 87.4375 62.37109375 C88.17842912 64.66768784 88.17842912 64.66768784 90.375 65.5 C90.045 66.49 89.715 67.48 89.375 68.5 C89.62633789 70.59159348 89.95004621 72.6747744 90.3125 74.75 C93.00448235 92.72727939 91.33953896 110.09576494 83.375 126.5 C82.92125 127.50675781 82.4675 128.51351562 82 129.55078125 C78.64817335 136.718954 74.53458476 142.52947854 69.375 148.5 C68.56095703 149.53060547 68.56095703 149.53060547 67.73046875 150.58203125 C54.96035613 166.3349439 34.12741323 176.26140636 14.375 179.5 C-3.52495251 181.25880463 -21.36987654 179.48020008 -37.625 171.5 C-38.55957031 171.04625 -39.49414062 170.5925 -40.45703125 170.125 C-60.15103399 159.988786 -76.07341753 142.39271149 -83.625 121.5 C-85.12512838 116.53279171 -86.4000486 111.54092905 -87.625 106.5 C-87.96724609 105.31470703 -87.96724609 105.31470703 -88.31640625 104.10546875 C-91.15096548 93.73851437 -90.38582396 81.78168923 -87.625 71.5 C-87.25761719 69.93765625 -87.25761719 69.93765625 -86.8828125 68.34375 C-81.04012891 45.38665696 -67.19608751 25.98401787 -47.25 13.1875 C-32.17585314 4.40923787 -17.49981949 -0.09790109 0 0 Z " fill="#ECCA12" transform="translate(311.625,328.5)"/>
<path d="M0 0 C1.42939055 1.17215329 2.84576173 2.36032881 4.25 3.5625 C5.07113281 4.25085938 5.89226562 4.93921875 6.73828125 5.6484375 C20.14122033 17.24126796 33.546546 34.81146186 37.25 52.5625 C35.14812468 53.87879567 33.04368324 55.19062997 30.9375 56.5 C30.34259766 56.87318359 29.74769531 57.24636719 29.13476562 57.63085938 C26.52252256 59.25074194 24.17778827 60.58657058 21.25 61.5625 C20.89808594 60.61890625 20.54617188 59.6753125 20.18359375 58.703125 C11.12704945 34.93008537 -3.79718314 15.53376713 -27.45703125 4.8359375 C-39.91822947 -0.47099217 -51.98635913 -2.9953092 -65.5625 -2.875 C-66.78936523 -2.86597656 -68.01623047 -2.85695313 -69.28027344 -2.84765625 C-93.04077649 -2.39519494 -112.83785064 7.67238311 -130.08203125 23.7734375 C-141.73682596 35.95721996 -148.83995267 51.33285632 -152.75 67.5625 C-152.97558594 68.40039062 -153.20117188 69.23828125 -153.43359375 70.1015625 C-155.97809104 80.5954203 -155.71198705 92.21256823 -152.75 102.5625 C-152.50507813 103.655625 -152.26015625 104.74875 -152.0078125 105.875 C-146.63236215 128.70877142 -133.16074683 148.99387123 -113.08789062 161.48730469 C-92.36678474 173.88155396 -67.16279175 178.7798682 -43.4284668 172.87280273 C-20.80211171 166.40481154 -0.74088342 153.42698466 11.28466797 132.78662109 C15.20326999 125.65680855 18.42194737 118.18594623 21.25 110.5625 C21.99765625 110.97242188 22.7453125 111.38234375 23.515625 111.8046875 C24.50046875 112.34351563 25.4853125 112.88234375 26.5 113.4375 C27.47453125 113.97117187 28.4490625 114.50484375 29.453125 115.0546875 C31.70130408 116.26669466 33.9572805 117.43797567 36.25 118.5625 C35.73433743 124.10587267 34.30192331 128.26259738 31.75 133.1875 C31.39107666 133.88480225 31.03215332 134.58210449 30.66235352 135.30053711 C16.71012755 161.79979409 -5.7795221 179.91051361 -34.125 189.49609375 C-46.07515193 193.01160181 -57.35607336 194.0627594 -69.75 193.5625 C-70.93464844 193.5315625 -72.11929688 193.500625 -73.33984375 193.46875 C-97.28730041 192.39124914 -118.70983384 181.80086539 -136.75 166.5625 C-137.57371094 165.88574219 -138.39742187 165.20898438 -139.24609375 164.51171875 C-155.36776031 150.75422794 -164.49161374 132.83762394 -169.75 112.5625 C-169.75 111.9025 -169.75 111.2425 -169.75 110.5625 C-218.92 110.5625 -268.09 110.5625 -318.75 110.5625 C-318.75 62.5625 -318.75 62.5625 -317.75 61.5625 C-315.83905061 61.46591096 -313.92448134 61.44062808 -312.01109314 61.44224548 C-310.76442368 61.44087082 -309.51775421 61.43949615 -308.23330688 61.43807983 C-306.83905006 61.44161944 -305.44479347 61.44525426 -304.05053711 61.44897461 C-302.59228009 61.44925647 -301.13402293 61.44909876 -299.67576599 61.4485321 C-295.70486515 61.4482441 -291.73399425 61.45414123 -287.76310039 61.46110606 C-283.61774899 61.46733919 -279.47239698 61.46794337 -275.32704163 61.46913147 C-267.47180673 61.47224491 -259.61658568 61.48045846 -251.76135689 61.49048096 C-242.82075601 61.50164171 -233.88015448 61.50715245 -224.93954837 61.51217639 C-206.54302439 61.52264107 -188.1465133 61.54024075 -169.75 61.5625 C-169.62411499 60.89151779 -169.49822998 60.22053558 -169.36853027 59.52922058 C-169.19728638 58.64067886 -169.02604248 57.75213715 -168.84960938 56.83666992 C-168.68247437 55.95943771 -168.51533936 55.08220551 -168.34313965 54.1783905 C-167.43953706 50.19328274 -165.93910169 46.58367981 -164.25 42.875 C-163.90324219 42.10607422 -163.55648437 41.33714844 -163.19921875 40.54492188 C-159.51834173 32.65639921 -154.90100973 25.55946342 -149.75 18.5625 C-149.04617187 17.6034375 -148.34234375 16.644375 -147.6171875 15.65625 C-143.47422625 10.26227692 -139.00045088 5.85746342 -133.75 1.5625 C-132.96238281 0.85351562 -132.17476562 0.14453125 -131.36328125 -0.5859375 C-95.4526879 -32.04125544 -36.70489975 -27.73686141 0 0 Z " fill="#89434B" transform="translate(377.75,332.4375)"/>
<path d="M0 0 C1.42939055 1.17215329 2.84576173 2.36032881 4.25 3.5625 C5.07113281 4.25085938 5.89226562 4.93921875 6.73828125 5.6484375 C20.14122033 17.24126796 33.546546 34.81146186 37.25 52.5625 C35.14812468 53.87879567 33.04368324 55.19062997 30.9375 56.5 C30.34259766 56.87318359 29.74769531 57.24636719 29.13476562 57.63085938 C26.52252256 59.25074194 24.17778827 60.58657058 21.25 61.5625 C20.89808594 60.61890625 20.54617188 59.6753125 20.18359375 58.703125 C11.12704945 34.93008537 -3.79718314 15.53376713 -27.45703125 4.8359375 C-39.91822947 -0.47099217 -51.98635913 -2.9953092 -65.5625 -2.875 C-66.78936523 -2.86597656 -68.01623047 -2.85695313 -69.28027344 -2.84765625 C-93.04077649 -2.39519494 -112.83785064 7.67238311 -130.08203125 23.7734375 C-141.17502009 35.36991485 -148.25219928 50.30908887 -152.75 65.5625 C-153.08 65.5625 -153.41 65.5625 -153.75 65.5625 C-153.75 63.9125 -153.75 62.2625 -153.75 60.5625 C-158.7 60.5625 -163.65 60.5625 -168.75 60.5625 C-168.27868841 54.01578832 -167.056919 48.88109722 -164.3125 42.9375 C-163.96123047 42.1640625 -163.60996094 41.390625 -163.24804688 40.59375 C-159.53948968 32.69769454 -154.91229699 25.57479567 -149.75 18.5625 C-148.69425781 17.12390625 -148.69425781 17.12390625 -147.6171875 15.65625 C-143.47422625 10.26227692 -139.00045088 5.85746342 -133.75 1.5625 C-132.96238281 0.85351562 -132.17476562 0.14453125 -131.36328125 -0.5859375 C-95.4526879 -32.04125544 -36.70489975 -27.73686141 0 0 Z " fill="#262523" transform="translate(377.75,332.4375)"/>
<path d="M0 0 C2 1 2 1 3.26171875 4.578125 C3.73967055 6.13459276 4.21474378 7.69194629 4.6875 9.25 C8.66479483 21.68611791 14.23484967 32.19708142 23 42 C24.10794922 43.24910156 24.10794922 43.24910156 25.23828125 44.5234375 C40.54649143 60.80876748 61.94734118 70.21550835 84.1953125 71.30859375 C109.70607755 72.07027015 132.94645429 64.72730175 151.84375 47.1640625 C163.46869938 35.79947821 170.38080908 22.14738423 176 7 C176.74765625 7.40992188 177.4953125 7.81984375 178.265625 8.2421875 C179.25046875 8.78101563 180.2353125 9.31984375 181.25 9.875 C182.22453125 10.40867187 183.1990625 10.94234375 184.203125 11.4921875 C186.45130408 12.70419466 188.7072805 13.87547567 191 15 C190.48433743 20.54337267 189.05192331 24.70009738 186.5 29.625 C186.14107666 30.32230225 185.78215332 31.01960449 185.41235352 31.73803711 C171.46012755 58.23729409 148.9704779 76.34801361 120.625 85.93359375 C108.67484807 89.44910181 97.39392664 90.5002594 85 90 C83.81535156 89.9690625 82.63070312 89.938125 81.41015625 89.90625 C57.46269959 88.82874914 36.04016616 78.23836539 18 63 C17.17628906 62.32324219 16.35257813 61.64648438 15.50390625 60.94921875 C-0.61776031 47.19172794 -9.74161374 29.27512394 -15 9 C-15 8.34 -15 7.68 -15 7 C-10.05 7 -5.1 7 0 7 C0 4.69 0 2.38 0 0 Z " fill="#262523" transform="translate(223,436)"/>
</svg>
